
<svg version="1.0" xmlns="http://www.w3.org/2000/svg"
 width="869.000000pt" height="384.000000pt" viewBox="0 0 869.000000 384.000000"
 preserveAspectRatio="xMidYMid meet" >

<g transform="translate(0.000000,384.000000) scale(0.100000,-0.100000)"
fill="#000000" stroke="none">
<path d="M130 3736 c-15 -15 -12 -113 3 -123 6 -4 53 -10 104 -13 108 -7 135
-21 171 -90 l22 -44 0 -1532 0 -1531 -23 -43 c-31 -59 -75 -80 -179 -87 -46
-3 -89 -10 -95 -16 -19 -14 -17 -114 2 -124 8 -5 303 -7 657 -6 499 3 644 6
650 16 4 6 8 31 8 54 0 61 -17 73 -103 73 -144 1 -195 23 -235 101 -23 43 -23
48 -19 319 3 265 5 278 31 365 85 281 240 530 472 758 76 74 114 119 114 134
0 14 -44 66 -133 155 -195 196 -319 380 -406 603 -66 167 -81 266 -81 531 0
210 2 231 21 270 33 69 72 87 206 93 127 7 133 10 133 76 0 74 52 69 -665 69
-395 1 -650 -3 -655 -8z"/>
<path d="M2158 3739 c-15 -9 -13 -108 1 -122 7 -7 57 -14 119 -18 162 -8 203
-41 223 -184 16 -112 5 -394 -20 -510 -63 -294 -238 -586 -505 -842 -63 -61
-96 -100 -96 -114 0 -14 47 -71 138 -163 167 -172 250 -287 342 -471 117 -236
144 -361 145 -675 0 -210 -1 -216 -25 -264 -41 -83 -90 -105 -235 -106 -38 0
-76 -4 -83 -8 -16 -11 -26 -102 -13 -122 9 -13 95 -14 656 -12 356 1 651 4
656 7 5 4 9 31 9 61 l0 56 42 -36 c82 -71 235 -103 372 -77 73 13 188 68 243
115 45 39 44 40 58 -31 4 -18 19 -46 35 -63 23 -25 36 -30 74 -30 117 0 184
71 122 129 -24 22 -42 24 -96 10 -13 -3 -16 49 -20 416 l-5 420 -28 56 c-51
104 -156 177 -284 198 -112 18 -262 -17 -359 -83 -41 -28 -154 -135 -154 -146
0 -8 85 -70 95 -70 4 0 27 22 52 50 107 119 310 168 435 104 92 -46 125 -114
119 -244 l-1 -35 -172 0 c-154 0 -181 -3 -248 -23 -109 -35 -164 -66 -228
-130 -127 -127 -162 -301 -93 -458 12 -26 21 -49 21 -52 0 -3 -38 -2 -83 0
-142 9 -186 45 -207 168 -8 46 -10 491 -8 1540 l3 1475 25 49 c38 75 63 89
172 94 51 2 99 9 106 14 16 14 16 114 0 124 -15 9 -1286 12 -1300 3z m1981
-2925 l31 -6 0 -140 c0 -131 -2 -143 -27 -194 -106 -216 -433 -297 -570 -141
-63 72 -69 210 -13 297 64 100 149 151 305 184 33 6 240 7 274 0z"/>
<path fill="currentColor" d="M2170 2662 c-100 -4 -223 -23 -335 -50 -150 -36 -255 -35 -392 2 -56
15 -112 26 -125 24 -52 -7 -15 -92 121 -278 75 -103 185 -211 251 -246 l55
-29 6 -255 c3 -140 7 -409 8 -598 l1 -343 -33 -14 c-131 -54 -427 -253 -517
-348 -47 -49 -51 -82 -15 -126 45 -52 86 -56 595 -56 487 1 556 6 597 48 12
12 25 36 29 54 5 28 1 37 -42 83 -80 86 -292 231 -513 352 l-31 17 -2 421 c-2
231 -3 495 -3 587 l0 168 45 24 c68 37 148 104 218 184 71 81 196 259 217 311
13 30 12 35 -3 49 -20 17 -57 23 -132 19z"/>
<path fill="currentColor" d="M5530 1593 c0 -113 -11 -161 -46 -202 -33 -39 -74 -51 -211 -58
l-113 -6 0 -63 0 -64 185 0 185 0 0 -357 c0 -373 7 -458 41 -526 27 -52 103
-126 160 -154 131 -65 299 -36 403 71 65 68 90 126 96 231 l5 90 14 -40 c29
-84 75 -161 130 -216 216 -216 592 -210 835 12 108 100 129 157 72 194 -37 25
-68 10 -153 -74 -170 -169 -371 -215 -549 -126 -164 80 -244 221 -244 425 0
155 43 264 138 351 164 150 397 174 531 53 53 -48 111 -148 95 -164 -6 -6
-158 -89 -339 -185 -182 -97 -334 -180 -338 -184 -9 -9 38 -111 51 -111 4 0
181 94 392 208 l385 208 -1 37 c-2 61 -74 197 -137 259 -175 172 -456 175
-681 9 -142 -105 -222 -289 -214 -495 3 -80 2 -84 -14 -69 -23 21 -75 19 -99
-3 -15 -14 -19 -31 -19 -89 0 -192 -59 -286 -188 -302 -64 -7 -114 10 -165 56
-77 69 -77 66 -77 503 l0 388 183 2 182 3 3 63 3 62 -186 0 -185 0 0 143 c0
78 -3 159 -6 180 l-7 37 -58 0 -59 0 0 -97z"/>
<path d="M4720 1376 c-72 -21 -123 -51 -167 -99 -62 -67 -76 -101 -81 -193 -4
-72 -1 -89 20 -135 49 -104 148 -173 294 -203 201 -42 294 -117 294 -237 -1
-166 -230 -302 -412 -245 -69 22 -119 66 -161 141 -38 70 -72 89 -115 64 -40
-22 -40 -65 -1 -140 67 -126 199 -199 361 -199 193 0 339 83 415 238 33 66 38
85 38 146 -1 57 -6 83 -28 128 -52 107 -142 166 -319 209 -141 35 -198 64
-235 120 -60 90 -33 196 65 255 29 18 73 35 97 39 114 17 255 -76 255 -168 0
-47 -52 -64 -85 -27 -18 20 -18 20 -66 -7 -27 -14 -49 -32 -49 -38 0 -20 39
-64 70 -80 38 -20 123 -19 165 1 18 8 46 34 62 56 40 58 40 143 0 211 -75 127
-274 205 -417 163z"/>
<path d="M7857 1329 c-65 -9 -167 -51 -193 -80 -27 -30 -34 -23 -34 31 l0 50
-155 0 -155 0 0 -60 0 -60 95 0 95 0 0 -453 c0 -499 2 -480 -63 -514 -18 -9
-45 -19 -62 -23 -26 -5 -30 -11 -33 -43 l-3 -37 215 0 216 0 0 39 c0 37 -1 39
-39 45 -47 7 -97 59 -106 109 -4 18 -5 175 -3 348 l3 314 29 58 c53 109 155
165 281 155 100 -9 177 -62 227 -158 22 -44 23 -53 29 -395 3 -202 10 -363 16
-381 19 -55 44 -83 99 -110 47 -23 63 -26 115 -21 74 7 109 27 109 66 0 47
-29 64 -109 62 -105 -3 -101 -16 -101 339 -1 333 -7 405 -43 484 -30 65 -111
155 -171 189 -72 42 -167 58 -259 46z"/>
</g>
</svg>
