<svg version="1.0" xmlns="http://www.w3.org/2000/svg"
     width="100.000000pt" height="100.000000pt" viewBox="0 0 392.000000 392.000000"
     preserveAspectRatio="xMidYMid meet">

    <g transform="translate(0.000000,392.000000) scale(0.100000,-0.100000)"
       fill="#000000" stroke="none">
        <path d="M310 3736 c-15 -15 -12 -113 3 -123 6 -4 53 -10 104 -13 108 -7 135
-21 171 -90 l22 -44 0 -1532 0 -1531 -23 -43 c-31 -59 -75 -80 -179 -87 -46
-3 -89 -10 -95 -16 -19 -14 -17 -114 2 -124 8 -5 303 -7 657 -6 499 3 644 6
650 16 4 6 8 31 8 54 0 61 -17 73 -103 73 -144 1 -195 23 -235 101 -23 43 -23
48 -19 319 3 265 5 278 31 365 85 281 240 530 472 758 76 74 114 119 114 134
0 14 -44 66 -133 155 -195 196 -319 380 -406 603 -66 167 -81 266 -81 531 0
210 2 231 21 270 33 69 72 87 206 93 127 7 133 10 133 76 0 74 52 69 -665 69
-395 1 -650 -3 -655 -8z"/>
        <path d="M2338 3739 c-15 -9 -13 -108 1 -122 7 -7 57 -14 119 -18 162 -8 203
-41 223 -184 16 -112 5 -394 -20 -510 -63 -294 -238 -586 -505 -842 -63 -61
-96 -100 -96 -114 0 -14 47 -71 138 -163 167 -172 250 -287 342 -471 117 -236
144 -361 145 -675 0 -210 -1 -216 -25 -264 -41 -83 -90 -105 -235 -106 -38 0
-76 -4 -83 -8 -16 -11 -26 -102 -13 -122 9 -13 95 -14 656 -12 356 1 651 4
656 7 5 4 9 33 9 65 0 68 5 65 -117 74 -129 9 -172 46 -193 166 -8 46 -10 491
-8 1540 l3 1475 25 49 c38 75 63 89 172 94 51 2 99 9 106 14 16 14 16 114 0
124 -15 9 -1286 12 -1300 3z"/>
        <path fill="currentColor" d="M2297 2659 c-97 -8 -158 -18 -352 -60 -118 -25 -180 -22 -325 16 -54
15 -109 25 -122 23 -53 -7 -15 -93 120 -278 76 -103 186 -211 252 -246 l55
-29 6 -265 c4 -146 7 -414 8 -597 l1 -331 -58 -29 c-175 -88 -461 -285 -509
-351 -48 -66 -11 -132 85 -154 79 -18 939 -18 1027 0 103 21 141 86 88 153
-53 68 -258 216 -438 317 -49 28 -97 57 -107 64 -15 12 -16 68 -20 598 l-3
585 46 25 c76 41 147 101 215 180 66 76 187 247 219 309 16 32 16 34 -2 51
-25 24 -70 29 -186 19z"/>
    </g>
</svg>
